<?xml version="1.0" encoding="UTF-8" standalone="no"?>
<svg xmlns="http://www.w3.org/2000/svg" width="12cm" height="8cm" viewBox="0 0 1000 250">
<defs>
<marker orient="auto" refY="0.0" refX="0.0" id="Arrow" style="overflow:visible">
<path d="M 0.0,0.0 L 5.0,-5.0 L -12.5,0.0 L 5.0,5.0 L 0.0,0.0 z " style="fill-rule:evenodd;stroke:#000000;stroke-width:1.0pt;marker-start:none;" transform="scale(0.4) rotate(180) translate(10,0)" />
</marker>
</defs>
<g>
<path d="M118,84 L94,107" fill="none" stroke="black" stroke-width="3.0" stroke-linecap="butt" stroke-linejoin="miter" />
<text font-size="32" transform="scale(0.6578947368421053,0.6578947368421053)" x="150.0" y="170.0" style="fill:black" />
<path d="M55,84 L78,107" fill="none" stroke="black" stroke-width="3.0" stroke-linecap="butt" stroke-linejoin="miter" />
<text font-size="32" transform="scale(0.6578947368421053,0.6578947368421053)" x="90.0" y="170.0" style="fill:black" />
<path d="M118,68 L94,44" fill="none" stroke="black" stroke-width="3.0" stroke-linecap="butt" stroke-linejoin="miter" />
<text font-size="32" transform="scale(0.6578947368421053,0.6578947368421053)" x="150.0" y="110.0" style="fill:black" />
<path d="M55,68 L78,44" fill="none" stroke="black" stroke-width="3.0" stroke-linecap="butt" stroke-linejoin="miter" />
<text font-size="32" transform="scale(0.6578947368421053,0.6578947368421053)" x="90.0" y="110.0" style="fill:black" />
<path d="M363,99 L363,92" fill="none" stroke="black" stroke-width="3.0" stroke-linecap="butt" stroke-linejoin="miter" />
<text font-size="32" transform="scale(0.6578947368421053,0.6578947368421053)" x="540.0" y="170.0" style="fill:black" />
<path d="M394,76 L371,76" fill="none" stroke="black" stroke-width="3.0" stroke-linecap="butt" stroke-linejoin="miter" />
<text font-size="32" transform="scale(0.6578947368421053,0.6578947368421053)" x="570.0" y="140.0" style="fill:black" />
<path d="M371,115 L394,115" fill="none" stroke="black" stroke-width="3.0" stroke-linecap="butt" stroke-linejoin="miter" />
<text font-size="32" transform="scale(0.6578947368421053,0.6578947368421053)" x="570.0" y="200.0" style="fill:black" />
<path d="M402,92 L402,99" fill="none" stroke="black" stroke-width="3.0" stroke-linecap="butt" stroke-linejoin="miter" />
<text font-size="32" transform="scale(0.6578947368421053,0.6578947368421053)" x="600.0" y="170.0" style="fill:black" />
<path d="M671,107 L647,84" fill="none" stroke="black" stroke-width="3.0" stroke-linecap="butt" stroke-linejoin="miter" />
<text font-size="32" transform="scale(0.6578947368421053,0.6578947368421053)" x="990.0" y="170.0" style="fill:black" />
<path d="M608,107 L631,84" fill="none" stroke="black" stroke-width="3.0" stroke-linecap="butt" stroke-linejoin="miter" />
<text font-size="32" transform="scale(0.6578947368421053,0.6578947368421053)" x="930.0" y="170.0" style="fill:black" />
<path d="M671,125 L660,139" fill="none" stroke="black" stroke-width="3.0" stroke-linecap="butt" stroke-linejoin="miter" />
<text font-size="32" transform="scale(0.6578947368421053,0.6578947368421053)" x="990.0" y="230.0" style="fill:black" />
<path d="M608,122 L631,141" fill="none" stroke="black" stroke-width="3.0" stroke-linecap="butt" stroke-linejoin="miter" />
<text font-size="32" transform="scale(0.6578947368421053,0.6578947368421053)" x="930.0" y="230.0" style="fill:black" />
<path d="M947,115 L923,115" fill="none" stroke="black" stroke-width="3.0" stroke-linecap="butt" stroke-linejoin="miter" />
<text font-size="32" transform="scale(0.6578947368421053,0.6578947368421053)" x="1410.0" y="200.0" style="fill:black" />
<path d="M920,139 L919,131" fill="none" stroke="black" stroke-width="3.0" stroke-linecap="butt" stroke-linejoin="miter" />
<text font-size="32" transform="scale(0.6578947368421053,0.6578947368421053)" x="1380.0" y="230.0" style="fill:black" />
<path d="M958,131 L960,139" fill="none" stroke="black" stroke-width="3.0" stroke-linecap="butt" stroke-linejoin="miter" />
<text font-size="32" transform="scale(0.6578947368421053,0.6578947368421053)" x="1440.0" y="230.0" style="fill:black" />
<path d="M939,155 L947,155" fill="none" stroke="black" stroke-width="3.0" stroke-linecap="butt" stroke-linejoin="miter" />
<text font-size="32" transform="scale(0.6578947368421053,0.6578947368421053)" x="1410.0" y="260.0" style="fill:black" />
</g>
<text font-size="32" transform="scale(0.6578947368421053,0.6578947368421053)" x="0.0" y="260.0" style="fill:black">
25
</text>
<text font-size="32" transform="scale(0.6578947368421053,0.6578947368421053)" x="0.0" y="200.0" style="fill:black">
17
</text>
<text font-size="32" transform="scale(0.6578947368421053,0.6578947368421053)" x="0.0" y="140.0" style="fill:black">
13
</text>
<text font-size="32" transform="scale(0.6578947368421053,0.6578947368421053)" x="0.0" y="80.0" style="fill:black">
20
</text>
<text font-size="32" transform="scale(0.6578947368421053,0.6578947368421053)" x="0.0" y="20.0" style="fill:black">
24
</text>
<text font-size="32" transform="scale(0.6578947368421053,0.6578947368421053)" x="60.0" y="260.0" style="fill:black">
21
</text>
<text font-size="32" transform="scale(0.6578947368421053,0.6578947368421053)" x="60.0" y="200.0" style="fill:black">
9
</text>
<text font-size="32" transform="scale(0.6578947368421053,0.6578947368421053)" x="60.0" y="140.0" style="fill:black">
5
</text>
<text font-size="32" transform="scale(0.6578947368421053,0.6578947368421053)" x="60.0" y="80.0" style="fill:black">
8
</text>
<text font-size="32" transform="scale(0.6578947368421053,0.6578947368421053)" x="60.0" y="20.0" style="fill:black">
16
</text>
<text font-size="32" transform="scale(0.6578947368421053,0.6578947368421053)" x="120.0" y="260.0" style="fill:black">
10
</text>
<text font-size="32" transform="scale(0.6578947368421053,0.6578947368421053)" x="120.0" y="200.0" style="fill:black">
2
</text>
<text font-size="32" transform="scale(0.6578947368421053,0.6578947368421053)" x="120.0" y="140.0" style="fill:black">
1
</text>
<text font-size="32" transform="scale(0.6578947368421053,0.6578947368421053)" x="120.0" y="80.0" style="fill:black">
4
</text>
<text font-size="32" transform="scale(0.6578947368421053,0.6578947368421053)" x="120.0" y="20.0" style="fill:black">
12
</text>
<text font-size="32" transform="scale(0.6578947368421053,0.6578947368421053)" x="180.0" y="260.0" style="fill:black">
14
</text>
<text font-size="32" transform="scale(0.6578947368421053,0.6578947368421053)" x="180.0" y="200.0" style="fill:black">
6
</text>
<text font-size="32" transform="scale(0.6578947368421053,0.6578947368421053)" x="180.0" y="140.0" style="fill:black">
3
</text>
<text font-size="32" transform="scale(0.6578947368421053,0.6578947368421053)" x="180.0" y="80.0" style="fill:black">
7
</text>
<text font-size="32" transform="scale(0.6578947368421053,0.6578947368421053)" x="180.0" y="20.0" style="fill:black">
19
</text>
<text font-size="32" transform="scale(0.6578947368421053,0.6578947368421053)" x="240.0" y="260.0" style="fill:black">
22
</text>
<text font-size="32" transform="scale(0.6578947368421053,0.6578947368421053)" x="240.0" y="200.0" style="fill:black">
18
</text>
<text font-size="32" transform="scale(0.6578947368421053,0.6578947368421053)" x="240.0" y="140.0" style="fill:black">
11
</text>
<text font-size="32" transform="scale(0.6578947368421053,0.6578947368421053)" x="240.0" y="80.0" style="fill:black">
15
</text>
<text font-size="32" transform="scale(0.6578947368421053,0.6578947368421053)" x="240.0" y="20.0" style="fill:black">
23
</text>
<text font-size="32" transform="scale(0.6578947368421053,0.6578947368421053)" x="420.0" y="260.0" style="fill:black">
25
</text>
<text font-size="32" transform="scale(0.6578947368421053,0.6578947368421053)" x="420.0" y="200.0" style="fill:black">
17
</text>
<text font-size="32" transform="scale(0.6578947368421053,0.6578947368421053)" x="420.0" y="140.0" style="fill:black">
13
</text>
<text font-size="32" transform="scale(0.6578947368421053,0.6578947368421053)" x="420.0" y="80.0" style="fill:black">
20
</text>
<text font-size="32" transform="scale(0.6578947368421053,0.6578947368421053)" x="420.0" y="20.0" style="fill:black">
24
</text>
<text font-size="32" transform="scale(0.6578947368421053,0.6578947368421053)" x="480.0" y="260.0" style="fill:black">
21
</text>
<text font-size="32" transform="scale(0.6578947368421053,0.6578947368421053)" x="480.0" y="200.0" style="fill:black">
9
</text>
<text font-size="32" transform="scale(0.6578947368421053,0.6578947368421053)" x="480.0" y="140.0" style="fill:black">
5
</text>
<text font-size="32" transform="scale(0.6578947368421053,0.6578947368421053)" x="480.0" y="80.0" style="fill:black">
8
</text>
<text font-size="32" transform="scale(0.6578947368421053,0.6578947368421053)" x="480.0" y="20.0" style="fill:black">
16
</text>
<text font-size="32" transform="scale(0.6578947368421053,0.6578947368421053)" x="540.0" y="260.0" style="fill:black">
10
</text>
<text font-size="32" transform="scale(0.6578947368421053,0.6578947368421053)" x="540.0" y="200.0" style="fill:black">
2
</text>
<text font-size="32" transform="scale(0.6578947368421053,0.6578947368421053)" x="540.0" y="140.0" style="fill:black">
1
</text>
<text font-size="32" transform="scale(0.6578947368421053,0.6578947368421053)" x="540.0" y="80.0" style="fill:black">
4
</text>
<text font-size="32" transform="scale(0.6578947368421053,0.6578947368421053)" x="540.0" y="20.0" style="fill:black">
12
</text>
<text font-size="32" transform="scale(0.6578947368421053,0.6578947368421053)" x="600.0" y="260.0" style="fill:black">
14
</text>
<text font-size="32" transform="scale(0.6578947368421053,0.6578947368421053)" x="600.0" y="200.0" style="fill:black">
6
</text>
<text font-size="32" transform="scale(0.6578947368421053,0.6578947368421053)" x="600.0" y="140.0" style="fill:black">
3
</text>
<text font-size="32" transform="scale(0.6578947368421053,0.6578947368421053)" x="600.0" y="80.0" style="fill:black">
7
</text>
<text font-size="32" transform="scale(0.6578947368421053,0.6578947368421053)" x="600.0" y="20.0" style="fill:black">
19
</text>
<text font-size="32" transform="scale(0.6578947368421053,0.6578947368421053)" x="660.0" y="260.0" style="fill:black">
22
</text>
<text font-size="32" transform="scale(0.6578947368421053,0.6578947368421053)" x="660.0" y="200.0" style="fill:black">
18
</text>
<text font-size="32" transform="scale(0.6578947368421053,0.6578947368421053)" x="660.0" y="140.0" style="fill:black">
11
</text>
<text font-size="32" transform="scale(0.6578947368421053,0.6578947368421053)" x="660.0" y="80.0" style="fill:black">
15
</text>
<text font-size="32" transform="scale(0.6578947368421053,0.6578947368421053)" x="660.0" y="20.0" style="fill:black">
23
</text>
<text font-size="32" transform="scale(0.6578947368421053,0.6578947368421053)" x="840.0" y="260.0" style="fill:black">
25
</text>
<text font-size="32" transform="scale(0.6578947368421053,0.6578947368421053)" x="840.0" y="200.0" style="fill:black">
17
</text>
<text font-size="32" transform="scale(0.6578947368421053,0.6578947368421053)" x="840.0" y="140.0" style="fill:black">
13
</text>
<text font-size="32" transform="scale(0.6578947368421053,0.6578947368421053)" x="840.0" y="80.0" style="fill:black">
20
</text>
<text font-size="32" transform="scale(0.6578947368421053,0.6578947368421053)" x="840.0" y="20.0" style="fill:black">
24
</text>
<text font-size="32" transform="scale(0.6578947368421053,0.6578947368421053)" x="900.0" y="260.0" style="fill:black">
21
</text>
<text font-size="32" transform="scale(0.6578947368421053,0.6578947368421053)" x="900.0" y="200.0" style="fill:black">
9
</text>
<text font-size="32" transform="scale(0.6578947368421053,0.6578947368421053)" x="900.0" y="140.0" style="fill:black">
5
</text>
<text font-size="32" transform="scale(0.6578947368421053,0.6578947368421053)" x="900.0" y="80.0" style="fill:black">
8
</text>
<text font-size="32" transform="scale(0.6578947368421053,0.6578947368421053)" x="900.0" y="20.0" style="fill:black">
16
</text>
<text font-size="32" transform="scale(0.6578947368421053,0.6578947368421053)" x="960.0" y="260.0" style="fill:black">
10
</text>
<text font-size="32" transform="scale(0.6578947368421053,0.6578947368421053)" x="960.0" y="200.0" style="fill:black">
2
</text>
<text font-size="32" transform="scale(0.6578947368421053,0.6578947368421053)" x="960.0" y="140.0" style="fill:black">
1
</text>
<text font-size="32" transform="scale(0.6578947368421053,0.6578947368421053)" x="960.0" y="80.0" style="fill:black">
4
</text>
<text font-size="32" transform="scale(0.6578947368421053,0.6578947368421053)" x="960.0" y="20.0" style="fill:black">
12
</text>
<text font-size="32" transform="scale(0.6578947368421053,0.6578947368421053)" x="1020.0" y="260.0" style="fill:black">
14
</text>
<text font-size="32" transform="scale(0.6578947368421053,0.6578947368421053)" x="1020.0" y="200.0" style="fill:black">
6
</text>
<text font-size="32" transform="scale(0.6578947368421053,0.6578947368421053)" x="1020.0" y="140.0" style="fill:black">
3
</text>
<text font-size="32" transform="scale(0.6578947368421053,0.6578947368421053)" x="1020.0" y="80.0" style="fill:black">
7
</text>
<text font-size="32" transform="scale(0.6578947368421053,0.6578947368421053)" x="1020.0" y="20.0" style="fill:black">
19
</text>
<text font-size="32" transform="scale(0.6578947368421053,0.6578947368421053)" x="1080.0" y="260.0" style="fill:black">
22
</text>
<text font-size="32" transform="scale(0.6578947368421053,0.6578947368421053)" x="1080.0" y="200.0" style="fill:black">
18
</text>
<text font-size="32" transform="scale(0.6578947368421053,0.6578947368421053)" x="1080.0" y="140.0" style="fill:black">
11
</text>
<text font-size="32" transform="scale(0.6578947368421053,0.6578947368421053)" x="1080.0" y="80.0" style="fill:black">
15
</text>
<text font-size="32" transform="scale(0.6578947368421053,0.6578947368421053)" x="1080.0" y="20.0" style="fill:black">
23
</text>
<text font-size="32" transform="scale(0.6578947368421053,0.6578947368421053)" x="1260.0" y="260.0" style="fill:black">
25
</text>
<text font-size="32" transform="scale(0.6578947368421053,0.6578947368421053)" x="1260.0" y="200.0" style="fill:black">
17
</text>
<text font-size="32" transform="scale(0.6578947368421053,0.6578947368421053)" x="1260.0" y="140.0" style="fill:black">
13
</text>
<text font-size="32" transform="scale(0.6578947368421053,0.6578947368421053)" x="1260.0" y="80.0" style="fill:black">
20
</text>
<text font-size="32" transform="scale(0.6578947368421053,0.6578947368421053)" x="1260.0" y="20.0" style="fill:black">
24
</text>
<text font-size="32" transform="scale(0.6578947368421053,0.6578947368421053)" x="1320.0" y="260.0" style="fill:black">
21
</text>
<text font-size="32" transform="scale(0.6578947368421053,0.6578947368421053)" x="1320.0" y="200.0" style="fill:black">
9
</text>
<text font-size="32" transform="scale(0.6578947368421053,0.6578947368421053)" x="1320.0" y="140.0" style="fill:black">
5
</text>
<text font-size="32" transform="scale(0.6578947368421053,0.6578947368421053)" x="1320.0" y="80.0" style="fill:black">
8
</text>
<text font-size="32" transform="scale(0.6578947368421053,0.6578947368421053)" x="1320.0" y="20.0" style="fill:black">
16
</text>
<text font-size="32" transform="scale(0.6578947368421053,0.6578947368421053)" x="1380.0" y="260.0" style="fill:black">
10
</text>
<text font-size="32" transform="scale(0.6578947368421053,0.6578947368421053)" x="1380.0" y="200.0" style="fill:black">
2
</text>
<text font-size="32" transform="scale(0.6578947368421053,0.6578947368421053)" x="1380.0" y="140.0" style="fill:black">
1
</text>
<text font-size="32" transform="scale(0.6578947368421053,0.6578947368421053)" x="1380.0" y="80.0" style="fill:black">
4
</text>
<text font-size="32" transform="scale(0.6578947368421053,0.6578947368421053)" x="1380.0" y="20.0" style="fill:black">
12
</text>
<text font-size="32" transform="scale(0.6578947368421053,0.6578947368421053)" x="1440.0" y="260.0" style="fill:black">
14
</text>
<text font-size="32" transform="scale(0.6578947368421053,0.6578947368421053)" x="1440.0" y="200.0" style="fill:black">
6
</text>
<text font-size="32" transform="scale(0.6578947368421053,0.6578947368421053)" x="1440.0" y="140.0" style="fill:black">
3
</text>
<text font-size="32" transform="scale(0.6578947368421053,0.6578947368421053)" x="1440.0" y="80.0" style="fill:black">
7
</text>
<text font-size="32" transform="scale(0.6578947368421053,0.6578947368421053)" x="1440.0" y="20.0" style="fill:black">
19
</text>
<text font-size="32" transform="scale(0.6578947368421053,0.6578947368421053)" x="1500.0" y="260.0" style="fill:black">
22
</text>
<text font-size="32" transform="scale(0.6578947368421053,0.6578947368421053)" x="1500.0" y="200.0" style="fill:black">
18
</text>
<text font-size="32" transform="scale(0.6578947368421053,0.6578947368421053)" x="1500.0" y="140.0" style="fill:black">
11
</text>
<text font-size="32" transform="scale(0.6578947368421053,0.6578947368421053)" x="1500.0" y="80.0" style="fill:black">
15
</text>
<text font-size="32" transform="scale(0.6578947368421053,0.6578947368421053)" x="1500.0" y="20.0" style="fill:black">
23
</text>
</svg>
