<?xml version="1.0" encoding="UTF-8" standalone="no"?>
<svg xmlns="http://www.w3.org/2000/svg" width="12cm" height="8cm" viewBox="0 0 1000 345">
<defs>
<marker orient="auto" refY="0.0" refX="0.0" id="Arrow" style="overflow:visible">
<path d="M 0.0,0.0 L 5.0,-5.0 L -12.5,0.0 L 5.0,5.0 L 0.0,0.0 z " style="fill-rule:evenodd;stroke:#000000;stroke-width:1.0pt;marker-start:none;" transform="scale(0.4) rotate(180) translate(10,0)" />
</marker>
</defs>
<g>
<path d="M163,119 L125,157" fill="none" stroke="black" stroke-width="3.0" stroke-linecap="butt" stroke-linejoin="miter" />
<text font-size="32" transform="scale(0.9090909090909091,0.9090909090909091)" x="150.0" y="170.0" style="fill:black" />
<path d="M70,119 L109,157" fill="none" stroke="black" stroke-width="3.0" stroke-linecap="butt" stroke-linejoin="miter" />
<text font-size="32" transform="scale(0.9090909090909091,0.9090909090909091)" x="90.0" y="170.0" style="fill:black" />
<path d="M163,103 L125,64" fill="none" stroke="black" stroke-width="3.0" stroke-linecap="butt" stroke-linejoin="miter" />
<text font-size="32" transform="scale(0.9090909090909091,0.9090909090909091)" x="150.0" y="110.0" style="fill:black" />
<path d="M70,103 L109,64" fill="none" stroke="black" stroke-width="3.0" stroke-linecap="butt" stroke-linejoin="miter" />
<text font-size="32" transform="scale(0.9090909090909091,0.9090909090909091)" x="90.0" y="110.0" style="fill:black" />
<path d="M498,149 L498,127" fill="none" stroke="black" stroke-width="3.0" stroke-linecap="butt" stroke-linejoin="miter" />
<text font-size="32" transform="scale(0.9090909090909091,0.9090909090909091)" x="540.0" y="170.0" style="fill:black" />
<path d="M545,111 L506,111" fill="none" stroke="black" stroke-width="3.0" stroke-linecap="butt" stroke-linejoin="miter" />
<text font-size="32" transform="scale(0.9090909090909091,0.9090909090909091)" x="570.0" y="140.0" style="fill:black" />
<path d="M506,165 L545,165" fill="none" stroke="black" stroke-width="3.0" stroke-linecap="butt" stroke-linejoin="miter" />
<text font-size="32" transform="scale(0.9090909090909091,0.9090909090909091)" x="570.0" y="200.0" style="fill:black" />
<path d="M553,127 L553,149" fill="none" stroke="black" stroke-width="3.0" stroke-linecap="butt" stroke-linejoin="miter" />
<text font-size="32" transform="scale(0.9090909090909091,0.9090909090909091)" x="600.0" y="170.0" style="fill:black" />
<path d="M927,157 L888,119" fill="none" stroke="black" stroke-width="3.0" stroke-linecap="butt" stroke-linejoin="miter" />
<text font-size="32" transform="scale(0.9090909090909091,0.9090909090909091)" x="990.0" y="170.0" style="fill:black" />
<path d="M834,157 L872,119" fill="none" stroke="black" stroke-width="3.0" stroke-linecap="butt" stroke-linejoin="miter" />
<text font-size="32" transform="scale(0.9090909090909091,0.9090909090909091)" x="930.0" y="170.0" style="fill:black" />
<path d="M927,175 L902,204" fill="none" stroke="black" stroke-width="3.0" stroke-linecap="butt" stroke-linejoin="miter" />
<text font-size="32" transform="scale(0.9090909090909091,0.9090909090909091)" x="990.0" y="230.0" style="fill:black" />
<path d="M834,172 L872,206" fill="none" stroke="black" stroke-width="3.0" stroke-linecap="butt" stroke-linejoin="miter" />
<text font-size="32" transform="scale(0.9090909090909091,0.9090909090909091)" x="930.0" y="230.0" style="fill:black" />
</g>
<text font-size="32" transform="scale(0.9090909090909091,0.9090909090909091)" x="0.0" y="260.0" style="fill:black">
25
</text>
<text font-size="32" transform="scale(0.9090909090909091,0.9090909090909091)" x="0.0" y="200.0" style="fill:black">
17
</text>
<text font-size="32" transform="scale(0.9090909090909091,0.9090909090909091)" x="0.0" y="140.0" style="fill:black">
13
</text>
<text font-size="32" transform="scale(0.9090909090909091,0.9090909090909091)" x="0.0" y="80.0" style="fill:black">
20
</text>
<text font-size="32" transform="scale(0.9090909090909091,0.9090909090909091)" x="0.0" y="20.0" style="fill:black">
24
</text>
<text font-size="32" transform="scale(0.9090909090909091,0.9090909090909091)" x="60.0" y="260.0" style="fill:black">
21
</text>
<text font-size="32" transform="scale(0.9090909090909091,0.9090909090909091)" x="60.0" y="200.0" style="fill:black">
9
</text>
<text font-size="32" transform="scale(0.9090909090909091,0.9090909090909091)" x="60.0" y="140.0" style="fill:black">
5
</text>
<text font-size="32" transform="scale(0.9090909090909091,0.9090909090909091)" x="60.0" y="80.0" style="fill:black">
8
</text>
<text font-size="32" transform="scale(0.9090909090909091,0.9090909090909091)" x="60.0" y="20.0" style="fill:black">
16
</text>
<text font-size="32" transform="scale(0.9090909090909091,0.9090909090909091)" x="120.0" y="260.0" style="fill:black">
10
</text>
<text font-size="32" transform="scale(0.9090909090909091,0.9090909090909091)" x="120.0" y="200.0" style="fill:black">
2
</text>
<text font-size="32" transform="scale(0.9090909090909091,0.9090909090909091)" x="120.0" y="140.0" style="fill:black">
1
</text>
<text font-size="32" transform="scale(0.9090909090909091,0.9090909090909091)" x="120.0" y="80.0" style="fill:black">
4
</text>
<text font-size="32" transform="scale(0.9090909090909091,0.9090909090909091)" x="120.0" y="20.0" style="fill:black">
12
</text>
<text font-size="32" transform="scale(0.9090909090909091,0.9090909090909091)" x="180.0" y="260.0" style="fill:black">
14
</text>
<text font-size="32" transform="scale(0.9090909090909091,0.9090909090909091)" x="180.0" y="200.0" style="fill:black">
6
</text>
<text font-size="32" transform="scale(0.9090909090909091,0.9090909090909091)" x="180.0" y="140.0" style="fill:black">
3
</text>
<text font-size="32" transform="scale(0.9090909090909091,0.9090909090909091)" x="180.0" y="80.0" style="fill:black">
7
</text>
<text font-size="32" transform="scale(0.9090909090909091,0.9090909090909091)" x="180.0" y="20.0" style="fill:black">
19
</text>
<text font-size="32" transform="scale(0.9090909090909091,0.9090909090909091)" x="240.0" y="260.0" style="fill:black">
22
</text>
<text font-size="32" transform="scale(0.9090909090909091,0.9090909090909091)" x="240.0" y="200.0" style="fill:black">
18
</text>
<text font-size="32" transform="scale(0.9090909090909091,0.9090909090909091)" x="240.0" y="140.0" style="fill:black">
11
</text>
<text font-size="32" transform="scale(0.9090909090909091,0.9090909090909091)" x="240.0" y="80.0" style="fill:black">
15
</text>
<text font-size="32" transform="scale(0.9090909090909091,0.9090909090909091)" x="240.0" y="20.0" style="fill:black">
23
</text>
<text font-size="32" transform="scale(0.9090909090909091,0.9090909090909091)" x="420.0" y="260.0" style="fill:black">
25
</text>
<text font-size="32" transform="scale(0.9090909090909091,0.9090909090909091)" x="420.0" y="200.0" style="fill:black">
17
</text>
<text font-size="32" transform="scale(0.9090909090909091,0.9090909090909091)" x="420.0" y="140.0" style="fill:black">
13
</text>
<text font-size="32" transform="scale(0.9090909090909091,0.9090909090909091)" x="420.0" y="80.0" style="fill:black">
20
</text>
<text font-size="32" transform="scale(0.9090909090909091,0.9090909090909091)" x="420.0" y="20.0" style="fill:black">
24
</text>
<text font-size="32" transform="scale(0.9090909090909091,0.9090909090909091)" x="480.0" y="260.0" style="fill:black">
21
</text>
<text font-size="32" transform="scale(0.9090909090909091,0.9090909090909091)" x="480.0" y="200.0" style="fill:black">
9
</text>
<text font-size="32" transform="scale(0.9090909090909091,0.9090909090909091)" x="480.0" y="140.0" style="fill:black">
5
</text>
<text font-size="32" transform="scale(0.9090909090909091,0.9090909090909091)" x="480.0" y="80.0" style="fill:black">
8
</text>
<text font-size="32" transform="scale(0.9090909090909091,0.9090909090909091)" x="480.0" y="20.0" style="fill:black">
16
</text>
<text font-size="32" transform="scale(0.9090909090909091,0.9090909090909091)" x="540.0" y="260.0" style="fill:black">
10
</text>
<text font-size="32" transform="scale(0.9090909090909091,0.9090909090909091)" x="540.0" y="200.0" style="fill:black">
2
</text>
<text font-size="32" transform="scale(0.9090909090909091,0.9090909090909091)" x="540.0" y="140.0" style="fill:black">
1
</text>
<text font-size="32" transform="scale(0.9090909090909091,0.9090909090909091)" x="540.0" y="80.0" style="fill:black">
4
</text>
<text font-size="32" transform="scale(0.9090909090909091,0.9090909090909091)" x="540.0" y="20.0" style="fill:black">
12
</text>
<text font-size="32" transform="scale(0.9090909090909091,0.9090909090909091)" x="600.0" y="260.0" style="fill:black">
14
</text>
<text font-size="32" transform="scale(0.9090909090909091,0.9090909090909091)" x="600.0" y="200.0" style="fill:black">
6
</text>
<text font-size="32" transform="scale(0.9090909090909091,0.9090909090909091)" x="600.0" y="140.0" style="fill:black">
3
</text>
<text font-size="32" transform="scale(0.9090909090909091,0.9090909090909091)" x="600.0" y="80.0" style="fill:black">
7
</text>
<text font-size="32" transform="scale(0.9090909090909091,0.9090909090909091)" x="600.0" y="20.0" style="fill:black">
19
</text>
<text font-size="32" transform="scale(0.9090909090909091,0.9090909090909091)" x="660.0" y="260.0" style="fill:black">
22
</text>
<text font-size="32" transform="scale(0.9090909090909091,0.9090909090909091)" x="660.0" y="200.0" style="fill:black">
18
</text>
<text font-size="32" transform="scale(0.9090909090909091,0.9090909090909091)" x="660.0" y="140.0" style="fill:black">
11
</text>
<text font-size="32" transform="scale(0.9090909090909091,0.9090909090909091)" x="660.0" y="80.0" style="fill:black">
15
</text>
<text font-size="32" transform="scale(0.9090909090909091,0.9090909090909091)" x="660.0" y="20.0" style="fill:black">
23
</text>
<text font-size="32" transform="scale(0.9090909090909091,0.9090909090909091)" x="840.0" y="260.0" style="fill:black">
25
</text>
<text font-size="32" transform="scale(0.9090909090909091,0.9090909090909091)" x="840.0" y="200.0" style="fill:black">
17
</text>
<text font-size="32" transform="scale(0.9090909090909091,0.9090909090909091)" x="840.0" y="140.0" style="fill:black">
13
</text>
<text font-size="32" transform="scale(0.9090909090909091,0.9090909090909091)" x="840.0" y="80.0" style="fill:black">
20
</text>
<text font-size="32" transform="scale(0.9090909090909091,0.9090909090909091)" x="840.0" y="20.0" style="fill:black">
24
</text>
<text font-size="32" transform="scale(0.9090909090909091,0.9090909090909091)" x="900.0" y="260.0" style="fill:black">
21
</text>
<text font-size="32" transform="scale(0.9090909090909091,0.9090909090909091)" x="900.0" y="200.0" style="fill:black">
9
</text>
<text font-size="32" transform="scale(0.9090909090909091,0.9090909090909091)" x="900.0" y="140.0" style="fill:black">
5
</text>
<text font-size="32" transform="scale(0.9090909090909091,0.9090909090909091)" x="900.0" y="80.0" style="fill:black">
8
</text>
<text font-size="32" transform="scale(0.9090909090909091,0.9090909090909091)" x="900.0" y="20.0" style="fill:black">
16
</text>
<text font-size="32" transform="scale(0.9090909090909091,0.9090909090909091)" x="960.0" y="260.0" style="fill:black">
10
</text>
<text font-size="32" transform="scale(0.9090909090909091,0.9090909090909091)" x="960.0" y="200.0" style="fill:black">
2
</text>
<text font-size="32" transform="scale(0.9090909090909091,0.9090909090909091)" x="960.0" y="140.0" style="fill:black">
1
</text>
<text font-size="32" transform="scale(0.9090909090909091,0.9090909090909091)" x="960.0" y="80.0" style="fill:black">
4
</text>
<text font-size="32" transform="scale(0.9090909090909091,0.9090909090909091)" x="960.0" y="20.0" style="fill:black">
12
</text>
<text font-size="32" transform="scale(0.9090909090909091,0.9090909090909091)" x="1020.0" y="260.0" style="fill:black">
14
</text>
<text font-size="32" transform="scale(0.9090909090909091,0.9090909090909091)" x="1020.0" y="200.0" style="fill:black">
6
</text>
<text font-size="32" transform="scale(0.9090909090909091,0.9090909090909091)" x="1020.0" y="140.0" style="fill:black">
3
</text>
<text font-size="32" transform="scale(0.9090909090909091,0.9090909090909091)" x="1020.0" y="80.0" style="fill:black">
7
</text>
<text font-size="32" transform="scale(0.9090909090909091,0.9090909090909091)" x="1020.0" y="20.0" style="fill:black">
19
</text>
<text font-size="32" transform="scale(0.9090909090909091,0.9090909090909091)" x="1080.0" y="260.0" style="fill:black">
22
</text>
<text font-size="32" transform="scale(0.9090909090909091,0.9090909090909091)" x="1080.0" y="200.0" style="fill:black">
18
</text>
<text font-size="32" transform="scale(0.9090909090909091,0.9090909090909091)" x="1080.0" y="140.0" style="fill:black">
11
</text>
<text font-size="32" transform="scale(0.9090909090909091,0.9090909090909091)" x="1080.0" y="80.0" style="fill:black">
15
</text>
<text font-size="32" transform="scale(0.9090909090909091,0.9090909090909091)" x="1080.0" y="20.0" style="fill:black">
23
</text>
</svg>
